<svg width="133" height="29" viewBox="0 0 133 29" fill="none" xmlns="http://www.w3.org/2000/svg">
<path d="M55.3115 5.67302V22.692H52.3568V9.33682H52.3175L47.0384 22.692H45.0686L39.6714 9.33682H39.632V22.692H36.9137V5.67302H41.1685L46.0535 18.2797H46.1323L51.2932 5.67302H55.3115ZM57.7541 6.97308C57.7541 6.50033 57.9116 6.10637 58.2662 5.7912C58.6208 5.47604 59.0147 5.31846 59.4875 5.31846C59.9996 5.31846 60.433 5.47604 60.7481 5.7912C61.0633 6.10637 61.2603 6.50033 61.2603 6.97308C61.2603 7.44583 61.1027 7.83978 60.7481 8.15495C60.3936 8.47011 59.9996 8.6277 59.4875 8.6277C58.9753 8.6277 58.5814 8.47011 58.2662 8.15495C57.951 7.80039 57.7541 7.40643 57.7541 6.97308ZM60.9451 10.4793V22.692H58.0692V10.4793H60.9451ZM69.6516 20.604C70.0849 20.604 70.5577 20.5252 71.0698 20.2888C71.582 20.0919 72.0547 19.8161 72.4881 19.5009V22.1798C72.0153 22.4556 71.5032 22.6526 70.9122 22.7708C70.3213 22.889 69.691 22.9677 68.9818 22.9677C67.1696 22.9677 65.712 22.4162 64.6089 21.2737C63.4664 20.1313 62.9149 18.6736 62.9149 16.9402C62.9149 14.9704 63.5058 13.3552 64.6483 12.0945C65.7908 10.8339 67.406 10.2035 69.5334 10.2035C70.0849 10.2035 70.6365 10.2823 71.1486 10.4005C71.7002 10.5187 72.1335 10.7157 72.4487 10.8733V13.631C72.0153 13.3158 71.5426 13.04 71.1092 12.8824C70.6365 12.7249 70.1637 12.6067 69.691 12.6067C68.5485 12.6067 67.6424 12.9612 66.9333 13.7097C66.2241 14.4583 65.909 15.4432 65.909 16.7038C65.909 17.9251 66.2635 18.91 66.9333 19.5797C67.603 20.2494 68.5091 20.604 69.6516 20.604ZM80.643 10.2823C80.8794 10.2823 81.0763 10.2823 81.2733 10.3217C81.4703 10.3611 81.6279 10.4005 81.7461 10.4399V13.3552C81.5885 13.237 81.3915 13.1188 81.0763 13.04C80.7612 12.9612 80.446 12.8824 80.0127 12.8824C79.3035 12.8824 78.7126 13.1976 78.2398 13.7885C77.7671 14.3795 77.4913 15.2856 77.4913 16.5462V22.692H74.6154V10.4793H77.4913V12.4097H77.5307C77.8065 11.74 78.2005 11.2278 78.7126 10.8339C79.2641 10.4793 79.8945 10.2823 80.643 10.2823ZM81.9036 16.7826C81.9036 14.7734 82.4946 13.1582 83.5977 11.9763C84.7401 10.7945 86.316 10.2035 88.3252 10.2035C90.2161 10.2035 91.7132 10.7551 92.7769 11.8975C93.8406 13.04 94.3921 14.5765 94.3921 16.5068C94.3921 18.4766 93.8012 20.0525 92.6981 21.2343C91.5556 22.4162 90.0192 23.0071 88.0494 23.0071C86.1584 23.0071 84.6614 22.4556 83.5583 21.3525C82.4552 20.21 81.9036 18.6736 81.9036 16.7826ZM84.8977 16.6644C84.8977 17.9251 85.1735 18.91 85.7644 19.5797C86.3554 20.2494 87.1827 20.604 88.2464 20.604C89.2707 20.604 90.098 20.2888 90.6495 19.5797C91.201 18.91 91.4768 17.9251 91.4768 16.5856C91.4768 15.2856 91.201 14.3007 90.6495 13.5916C90.098 12.9218 89.2707 12.5673 88.2858 12.5673C87.2221 12.5673 86.4342 12.9218 85.8432 13.631C85.1735 14.3795 84.8977 15.3644 84.8977 16.6644ZM98.6862 13.7097C98.6862 14.1037 98.8044 14.4583 99.0802 14.6946C99.356 14.931 99.9075 15.2068 100.814 15.5613C101.956 16.0341 102.783 16.5462 103.217 17.0978C103.689 17.6887 103.926 18.3584 103.926 19.1858C103.926 20.3282 103.493 21.2343 102.586 21.9435C101.72 22.6526 100.498 22.9677 99.0014 22.9677C98.4893 22.9677 97.9377 22.889 97.3074 22.7708C96.6771 22.6526 96.1649 22.495 95.7316 22.298V19.4615C96.2437 19.8161 96.8346 20.1312 97.4256 20.3282C98.0165 20.5252 98.568 20.6434 99.0802 20.6434C99.7105 20.6434 100.223 20.5646 100.498 20.3676C100.814 20.1706 100.971 19.8949 100.971 19.4615C100.971 19.0676 100.814 18.7524 100.498 18.4372C100.183 18.1615 99.5529 17.8463 98.6862 17.4917C97.6225 17.0584 96.874 16.5462 96.4407 15.9947C96.0073 15.4432 95.771 14.734 95.771 13.8673C95.771 12.7642 96.2043 11.8581 97.071 11.149C97.9377 10.4399 99.0802 10.0853 100.459 10.0853C100.892 10.0853 101.365 10.1247 101.877 10.2429C102.389 10.3611 102.862 10.4793 103.217 10.5975V13.3946C102.823 13.1582 102.389 12.9218 101.877 12.7249C101.365 12.5279 100.853 12.4491 100.38 12.4491C99.8287 12.4491 99.3954 12.5673 99.1196 12.7642C98.8438 13.04 98.6862 13.3158 98.6862 13.7097ZM105.147 16.7826C105.147 14.7734 105.738 13.1582 106.841 11.9763C107.984 10.7945 109.559 10.2035 111.569 10.2035C113.46 10.2035 114.957 10.7551 116.02 11.8975C117.084 13.04 117.636 14.5765 117.636 16.5068C117.636 18.4766 117.045 20.0525 115.942 21.2343C114.799 22.4162 113.263 23.0071 111.293 23.0071C109.402 23.0071 107.905 22.4556 106.802 21.3525C105.738 20.21 105.147 18.6736 105.147 16.7826ZM108.141 16.6644C108.141 17.9251 108.417 18.91 109.008 19.5797C109.599 20.2494 110.426 20.604 111.49 20.604C112.514 20.604 113.341 20.2888 113.893 19.5797C114.445 18.91 114.72 17.9251 114.72 16.5856C114.72 15.2856 114.445 14.3007 113.893 13.5916C113.341 12.9218 112.514 12.5673 111.529 12.5673C110.466 12.5673 109.678 12.9218 109.087 13.631C108.456 14.3795 108.141 15.3644 108.141 16.6644ZM127.209 12.843H122.915V22.692H119.999V12.843H117.951V10.4793H119.999V8.78528C119.999 7.52462 120.433 6.46093 121.26 5.63362C122.087 4.80631 123.151 4.41235 124.451 4.41235C124.806 4.41235 125.121 4.45175 125.397 4.45175C125.672 4.45175 125.909 4.53054 126.106 4.60933V7.09126C126.027 7.05187 125.83 6.97308 125.594 6.89428C125.357 6.81549 125.081 6.7761 124.766 6.7761C124.175 6.7761 123.703 6.97308 123.387 7.32764C123.072 7.6822 122.915 8.27313 122.915 8.98226V10.4399H127.209V7.6822L130.085 6.81549V10.4399H133V12.8036H130.085V18.516C130.085 19.2645 130.242 19.7767 130.479 20.0919C130.754 20.407 131.188 20.5646 131.779 20.5646C131.936 20.5646 132.133 20.5252 132.37 20.4464C132.606 20.3676 132.803 20.2888 132.961 20.1706V22.5344C132.764 22.6526 132.488 22.7314 132.054 22.8102C131.621 22.889 131.227 22.9283 130.794 22.9283C129.572 22.9283 128.666 22.6132 128.075 21.9828C127.485 21.3525 127.169 20.3676 127.169 19.0676L127.209 12.843Z" fill="white"/>
<path d="M13.4733 0H0V13.4733H13.4733V0Z" fill="#F25022"/>
<path d="M28.365 0H14.8916V13.4733H28.365V0Z" fill="#7FBA00"/>
<path d="M13.4733 14.8914H0V28.3647H13.4733V14.8914Z" fill="#00A4EF"/>
<path d="M28.365 14.8914H14.8916V28.3647H28.365V14.8914Z" fill="#FFB900"/>
</svg>
